<svg width="416" height="540" viewBox="0 0 416 540" fill="none" xmlns="http://www.w3.org/2000/svg">
<g filter="url(#filter0_d_22_462)">
<path fill-rule="evenodd" clip-rule="evenodd" d="M13.5063 298.681C18.5343 299.175 23.5623 299.668 28.5902 300.161C52.6705 302.001 76.7413 305.842 100.637 308.147C101.232 307.179 102.397 307.339 103.104 308.012C105.488 307.803 108.161 305.981 110.321 307.876C110.391 307.866 110.461 307.855 110.532 307.848C114.378 300.468 117.036 292.597 119.616 284.716C121.263 279.87 123.478 275.18 127.572 271.926C134.56 267.077 150.57 257.244 158.774 257.657C158.91 256.189 159.595 254.675 160.72 253.697C158.241 249.473 168.15 246.717 168.849 247.207C168.401 233.095 175.041 220.84 189.682 218.03C202.798 215.297 221.454 214.838 228.509 228.542C229.284 228.455 237.21 228.413 237.977 228.499C239.17 226.99 252.265 241.296 246.898 246.277C294.881 267.498 322.164 264.966 335.445 324.623C337.241 330.227 337.372 336.36 339.267 341.839C346.013 357.585 351.484 374.352 352.845 391.486C356.134 392.328 356.512 398.125 352.703 398.964C351.248 399.284 350.031 399.722 348.97 400.553C349.8 414.593 346.403 446.668 344.263 446.569C339.899 460.454 320.433 464.372 306.653 459.493C309.028 463.961 306.653 466.77 306.653 469.158C257.066 471.033 202.847 469.953 153.274 472.525C146.933 472.435 140.263 474.082 134.009 473.134C130.194 472.22 130.188 466.224 134.057 465.483L117.151 461.812C117.529 461.669 110.182 456.784 104.63 447.655C99.4616 437.443 102.979 425.116 100.637 414.007C82.347 412.512 63.7542 411.873 45.6642 408.776C43.1976 416.154 32.5203 407.33 29.1263 403.781C29.1306 403.775 29.1348 403.77 29.139 403.764C27.4965 403.315 26.1794 401.776 26.1353 399.954C24.9834 398.309 24.7416 395.989 25.8463 394.399C20.7834 365.193 13.065 335.372 10.2753 305.891C9.28906 305.673 8.36029 305.24 7.57288 304.574L7.63669 304.511C6.30261 303.024 6.04318 300.457 8.26724 299.194C10.0613 298.174 11.5593 298.49 13.5063 298.681Z" fill="#874825"/>
<path fill-rule="evenodd" clip-rule="evenodd" d="M204.732 407.994L200.859 410.459L169.169 420.667L149.803 423.131L133.958 420.667V447.773L130.789 473.119C132.197 475.7 145.577 475.7 170.93 473.119C187.091 471.473 246.156 470.675 259.604 470.323L260.366 470.302C276.169 469.847 291.779 469.847 307.197 470.302V460.798L263.183 438.972L223.747 416.795L204.732 407.994ZM227.187 226.327L224.276 228.499L230.631 238.937L199.676 263.969V283.964L189.876 293.231L184.274 283.964L176.381 273.47L170.771 256.459L172.681 245.251L168.84 244.89C168.822 245.656 168.825 246.428 168.849 247.207C168.15 246.717 158.242 249.473 160.72 253.697C159.595 254.675 158.91 256.189 158.774 257.657C150.57 257.244 134.56 267.077 127.573 271.926C123.478 275.18 121.263 279.87 119.616 284.716L119.228 285.898L118.828 287.112L118.425 288.324C116.196 294.99 113.79 301.595 110.532 307.848C110.461 307.855 110.391 307.866 110.321 307.876C108.161 305.981 105.488 307.803 103.104 308.012C102.413 307.354 101.286 307.187 100.68 308.082L100.637 308.147L130.345 313.998L149.944 382.729L167.012 368.878L176.173 370.24L200.367 378.964L228.505 386.271L292.741 403.976H300.921L348.522 392.484L352.811 391.068C351.395 374.08 345.958 357.457 339.268 341.839C337.372 336.36 337.241 330.227 335.445 324.623C322.164 264.966 294.881 267.498 246.898 246.277C252.265 241.296 239.17 226.99 237.977 228.499L237.902 228.493L237.74 228.484L237.53 228.477C235.658 228.422 229.204 228.464 228.509 228.542C228.105 227.758 227.663 227.02 227.187 226.327Z" fill="#78E185"/>
<path fill-rule="evenodd" clip-rule="evenodd" d="M8.75798 300.768L9.64288 305.698C9.85318 305.767 10.0672 305.826 10.2839 305.873C10.562 308.812 10.8891 311.755 11.2577 314.7L16.7439 345.269C17.6902 350.677 18.5885 356.097 19.4802 361.519L20.6618 367.342L21.3937 370.962C22.9734 378.8 24.5081 386.613 25.8549 394.382C25.6516 394.674 25.494 394.992 25.3792 395.325L25.4828 395.763L25.5549 396.055L25.6286 396.343C26.6912 400.427 28.5401 404.387 32.8974 405.589C36.1841 406.495 39.7904 406.577 43.1842 406.935L43.5604 406.975L102.947 413.652C110.123 414.459 117.296 415.29 124.467 416.129L130.684 416.858C139.35 417.862 148.065 418.651 156.603 420.467C156.917 420.534 157.177 420.659 157.389 420.824C155.67 414.318 154.024 407.82 152.532 401.247C150.853 393.85 149.26 386.439 147.464 379.068C143.847 364.22 139.791 349.469 135.352 334.845C134.42 331.776 133.467 328.713 132.493 325.657L131.81 323.52L131.284 321.818C130.47 319.222 129.462 316.555 127.075 315.123C124.282 313.447 120.472 313.169 117.304 312.59L115.159 312.187C111.949 311.588 108.734 311.012 105.516 310.459C90.1094 307.81 74.615 305.684 59.0636 304.088C42.8812 302.427 26.6424 301.347 10.3839 300.819L8.75798 300.768ZM156.158 402.694L156.007 402.707L158.225 420.435C158.58 420.187 159.03 420.035 159.58 420.036C166.856 420.058 173.831 417.733 180.578 415.177L181.605 414.785L184.469 413.685C187.381 412.569 190.308 411.479 193.29 410.574L194.495 410.211L195.108 410.03C197.365 409.371 199.74 408.772 202.088 408.623L202.408 408.605L201.725 408.247C201.625 408.194 201.537 408.135 201.459 408.072C200.166 408.168 198.871 408.142 197.508 407.896C194.944 407.434 192.451 406.543 190.161 405.301L189.139 404.747L188.72 404.525L188.444 404.382L188.169 404.243C186.202 403.263 184.322 402.649 181.839 403.171C179.021 403.764 176.551 405.283 174.011 406.566L173.56 406.79L173.256 406.937L172.947 407.082L172.635 407.225C169.199 408.771 163.731 410.439 162.414 405.769C161.885 403.892 162.299 402.135 163.217 400.595C161.506 400.447 158.449 402.464 156.158 402.694ZM70.6382 344.284L70.5968 344.496C70.111 347.111 71.3293 349.612 73.1729 351.436C74.6852 352.931 77.3616 353.762 78.1197 355.913C78.5514 357.137 78.0922 358.298 77.2056 359.107L77.4098 359.208L77.6095 359.31L77.8044 359.413L77.9944 359.517L78.1795 359.622C81.1915 361.352 83.6443 364.165 80.9278 367.563C77.8462 371.418 71.4071 371.543 66.8703 371.241L66.5647 371.22C62.1657 370.89 56.9547 369.413 54.5694 365.352C53.4753 363.489 53.5958 361.236 55.1208 359.642C56.0408 358.68 57.682 357.692 59.187 357.575C59.1211 356.728 59.2222 355.909 59.5204 355.218C60.1655 353.724 61.882 352.719 63.5377 352.682C63.4036 349.511 65.9445 346.38 67.8155 343.845L68.0065 343.584L68.1919 343.329C69.0503 342.135 70.8871 342.804 70.6382 344.284ZM68.1278 347.66L66.4232 354.043L66.4525 354.096C67.0529 355.236 65.479 356.53 64.5454 355.572L64.4514 355.47C63.3434 354.326 61.6426 355.864 61.6215 357.082C61.5912 358.796 62.7073 360.121 64.0372 360.997L64.1303 361.057L64.3754 361.209C65.4668 361.93 64.6406 363.438 63.4408 363.255C61.9563 363.027 60.7398 361.85 59.9898 360.381C59.1884 360.61 58.2764 360.582 57.4324 361.054C55.3056 362.244 56.5287 364.324 57.9137 365.581L57.9699 365.632L58.0827 365.73C60.6237 367.896 64.0831 368.649 67.3441 368.81L67.532 368.819C70.826 368.959 75.1176 369.007 77.9408 367.07C79.6979 365.864 80.2067 364.155 78.7197 362.536C77.8789 361.621 77.0299 360.698 76.156 359.806C74.8479 360.43 73.6796 360.177 72.3419 359.586C72.1704 359.51 72.2655 359.248 72.4334 359.248C73.1715 359.247 75.8796 357.878 76.0112 357.003C76.1329 356.193 74.6349 355.51 73.9064 355.118L73.8007 355.061L73.7091 355.007C72.9472 354.546 72.2299 354.009 71.5743 353.405C69.9103 351.874 68.7017 349.953 68.1739 347.851L68.1278 347.66Z" fill="#272C2E"/>
<path fill-rule="evenodd" clip-rule="evenodd" d="M227.594 225.359C226.1 221.606 221.05 223.065 221.613 227.008C221.95 229.37 223.244 231.865 224.406 233.935C225.353 235.62 226.432 237.265 227.896 238.528C225.291 240.958 222.586 243.3 219.813 245.524C216.787 247.949 213.605 250.185 210.316 252.24C207.431 254.043 204.417 255.64 201.698 257.696C199.171 259.608 196.868 261.907 195.696 264.909C194.448 268.106 194.99 271.407 195.909 274.601L196.015 274.962C196.954 278.127 198.58 281.942 196.325 284.923C195.178 286.441 193.51 287.516 192.069 288.73C190.789 289.808 189.587 290.981 188.485 292.241C186.082 294.988 184.127 298.078 182.894 301.522L182.783 301.834C181.726 304.883 180.954 308.617 182.382 311.61C182.792 312.468 184.114 312.189 184.343 311.354C184.862 309.461 184.835 307.479 185.271 305.56C185.723 303.564 186.477 301.669 187.461 299.877C189.365 296.409 191.944 293.447 194.991 290.943L195.903 290.201C198.28 288.251 200.463 286.183 200.946 282.955C201.462 279.502 200.078 276.213 199.188 272.945C198.568 270.667 198.366 268.484 199.036 266.426C199.855 267.762 200.972 269.029 201.855 270.161C203.615 272.414 205.391 274.653 207.162 276.897C208.978 279.198 210.75 281.535 212.437 283.933C213.191 285.005 213.938 286.084 214.682 287.164C215.241 287.976 216.022 288.787 216.631 289.615C216.483 290.058 216.494 290.568 216.763 290.931C219.997 295.3 224.598 286.184 225.798 283.881C228.242 279.191 230.061 274.209 232.512 269.52C235.053 264.659 237.946 259.928 241.17 255.49C243.121 252.806 245.306 250.285 247.091 247.516C251.294 251.326 256.825 253.88 261.905 256.197C267.487 258.741 273.286 260.82 279.009 263.027L280.699 263.684C290.56 267.531 300.662 271.758 308.858 278.592C318.49 286.623 324.187 297.815 328.429 309.406C333.312 322.75 337.352 336.453 341.118 350.148C343.045 357.155 344.874 364.194 346.593 371.255C348.107 377.476 349.363 383.759 351.117 389.916C347.56 389.79 343.504 391.166 340.468 391.564C326.63 393.374 312.979 396.261 299.915 401.259C298.301 401.876 297.834 403.487 298.185 404.793C297.255 404.531 296.325 404.265 295.394 404.003C296.414 402.442 295.927 399.649 295.847 397.918L295.842 397.799C295.76 395.492 295.509 393.183 295.347 390.88C295.038 386.491 294.635 382.134 294.1 377.77L293.964 376.678C293.357 371.93 292.909 367.154 292.248 362.414L292.169 361.872C292.487 360.659 292.856 359.461 293.244 358.269C294.277 355.092 295.735 352.101 297.013 349.024C297.163 348.662 296.647 348.454 296.406 348.671C294.242 350.617 292.523 353.087 291.142 355.669C291.118 355.547 291.097 355.425 291.072 355.303L290.914 354.528C290.526 352.637 290.053 350.647 288.893 349.113C288.769 348.95 288.525 348.916 288.408 349.113C287.297 350.992 287.173 353.371 287.002 355.509C286.809 357.928 286.785 360.377 286.819 362.802C286.885 367.541 287.219 372.294 287.486 377.025C287.747 381.675 288.26 386.265 288.921 390.869L289.046 391.733C289.369 393.924 289.634 396.143 290.06 398.319L290.18 398.911C290.408 399.991 290.548 401.513 291.002 402.777C279.334 399.523 267.647 396.343 255.939 393.22C247.477 390.962 239.005 388.738 230.538 386.5C230.091 385.695 229.535 384.943 228.84 384.271C226.553 382.056 223.521 381.068 220.74 382.773C220.514 382.912 220.495 383.266 220.74 383.4C221.273 383.691 221.807 383.99 222.331 384.301L217.247 382.924C213.446 381.894 209.6 380.608 205.711 379.89C198.546 376.355 190.841 373.797 183.293 371.268L182.404 370.967C178.54 369.65 174.543 368.176 170.55 367.446C167.627 366.911 164.196 367.556 163.021 370.55C161.533 371.53 160.133 372.682 158.782 373.815C157.805 374.634 156.869 375.505 155.917 376.352L155.741 376.506C154.963 377.182 154.346 377.634 154.155 378.709C154.056 379.264 154.409 380.014 155.094 379.941C157.19 379.716 158.893 377.288 160.315 375.838C161.412 374.717 162.519 373.558 163.521 372.327C164.105 372.645 164.906 372.588 165.278 371.883C167.206 368.233 172.488 370.763 175.411 371.628L179.597 372.867C181.69 373.487 183.783 374.111 185.872 374.745C191.612 376.488 197.325 378.439 203.118 380.039C202.6 380.609 202.671 381.622 203.656 382.007C208.19 383.786 213.165 384.706 217.876 385.926C220.85 386.698 223.823 387.474 226.794 388.254C227.304 389.079 227.67 390.013 227.824 391.099C228.391 395.095 227.298 399.705 226.232 403.57L226.072 404.146C225.196 407.253 223.908 411.062 221.227 413.024C220.572 413.502 219.738 413.835 218.898 413.911C213.649 411.21 208.401 408.509 203.149 405.813C202.176 405.314 201.277 405.99 201.059 406.794C199.207 406.49 197.36 406.011 195.677 405.44C192.849 404.48 190.642 402.65 187.991 401.383C182.862 398.934 177.624 401.943 173.032 404.23L171.974 404.75C169.915 405.749 165.63 407.668 164.642 404.936C163.687 402.293 166.708 399.468 168.66 398.279C170.986 396.861 173.694 396.102 176.323 395.469C177.824 395.108 179.343 394.814 180.872 394.598C182.606 394.355 184.397 394.391 186.066 393.829C186.896 393.55 187.023 392.233 186.066 392.015C183.496 391.431 180.429 392.068 177.747 392.72L176.346 393.065C173.644 393.728 170.916 394.56 168.455 395.882C166.666 396.844 164.777 398.305 163.543 400.093C162.472 399.098 161.138 399.132 159.749 399.501L158.995 399.71C157.75 400.055 156.741 400.293 155.53 400.054C155.368 399.173 155.204 398.291 155.028 397.41C153.301 388.745 151.408 380.113 149.319 371.528C145.716 356.719 141.546 342.073 136.845 327.577L136.373 326.128C135.289 322.812 134.417 319.199 132.669 316.153C131.016 313.273 128.367 311.614 125.22 310.735C121.649 309.738 117.897 309.217 114.254 308.543C113.441 308.393 112.626 308.251 111.813 308.103C112.5 306.863 113.013 305.454 113.475 304.373L113.556 304.186C114.549 301.923 115.441 299.619 116.302 297.303L116.947 295.562C118.502 291.369 120.107 287.245 122.293 283.323C124.595 279.196 127.648 275.822 131.454 273.03C139.214 267.335 148.567 264.431 156.093 258.345C156.402 258.096 156.006 257.67 155.693 257.827C150.611 260.38 145.125 262.116 139.839 264.194L138.796 264.606C134.619 266.262 130.376 268.064 126.759 270.745C122.728 273.734 119.552 277.447 117.166 281.861C114.813 286.213 113.309 291.084 111.649 295.732L111.206 296.971C110.536 298.828 109.845 300.679 109.053 302.487C108.424 303.922 107.25 305.56 106.717 307.199C105.257 306.946 103.798 306.692 102.337 306.448C70.6938 301.166 38.6969 298.063 6.62897 297.155C5.37439 297.119 4.72546 298.316 4.91031 299.41C7.98779 317.603 10.7227 335.858 13.7234 354.065C15.0332 362.011 16.3691 369.951 17.7364 377.888C18.429 381.908 19.2297 385.914 19.8857 389.941C20.4153 393.192 20.7998 396.47 21.7089 399.646C22.5244 402.495 23.7758 405.241 25.8311 407.414C28.0466 409.757 31.1388 410.89 34.2515 411.426C42.1533 412.786 50.2582 413.341 58.2241 414.247L100.635 419.07C100.015 424.702 99.9689 430.247 100.253 435.944L100.415 439.054C100.548 441.556 100.706 444.061 101.066 446.537C101.516 449.643 102.937 452.273 105.031 454.593C106.953 456.723 109.288 458.541 111.56 460.283C113.917 462.092 116.354 463.837 119.126 464.956L119.486 465.099C121.918 466.048 126.48 467.518 129.804 466.981C129.369 469.157 128.529 471.497 129.274 473.651C129.62 474.651 130.928 475.15 131.729 474.299C133.317 472.613 133.441 470.385 133.817 468.185C134.208 465.895 134.546 463.598 134.845 461.294C135.425 456.841 135.876 452.347 136.013 447.856C136.155 443.243 136.1 438.625 135.852 434.018C135.724 431.652 135.566 429.287 135.265 426.936C135.137 425.934 135.006 424.931 134.856 423.93C134.802 423.566 134.741 423.203 134.676 422.841L138.483 423.27C144.32 423.921 150.159 424.51 156.037 424.601C156.734 424.612 157.269 424.295 157.619 423.833C157.992 424.441 158.641 424.875 159.571 424.871C167.78 424.841 175.424 422.157 182.891 418.995C186.654 417.4 190.359 415.674 194.128 414.093C197.646 412.617 201.407 411.564 204.84 409.902L213.861 414.632C213.927 414.865 214.012 415.085 214.102 415.269C214.69 416.468 215.848 417.118 217.03 417.608C218.166 418.079 219.341 418.225 220.487 418.106C227.328 421.691 234.172 425.271 241.019 428.844L247.869 432.413C261.515 439.517 275.108 446.737 288.84 453.674L289.851 454.182C294.594 456.56 299.688 458.97 304.951 460.769C305.045 462.101 304.986 463.396 304.874 464.806L304.848 465.113C304.691 466.779 304.354 468.867 305.691 470.053C306.386 470.67 307.629 470.672 308.102 469.742C308.96 468.056 308.189 465.397 307.917 463.565C307.821 462.913 307.703 462.243 307.529 461.593C313.564 463.389 319.781 464.26 325.922 463.252C331.901 462.271 336.531 458.505 340.265 453.899C344.204 449.039 347.004 443.374 348.506 437.302C350.216 430.393 350.327 423.257 350.287 416.18C350.244 408.643 349.966 401.07 349.049 393.584C350.053 393.348 351.167 393.144 352.182 393.214C352.685 394.018 353.661 394.357 354.542 394.252C356.459 396.366 351.597 398.525 350.044 399.066C349.504 399.254 349.562 400.13 350.184 400.103L350.576 400.085C352.977 399.957 355.457 399.547 356.868 397.317C357.999 395.53 357.659 393.412 356.311 391.954C355.421 383.537 353.292 375.34 351.31 367.128C349.366 359.069 347.204 351.061 344.912 343.094L343.884 339.528C340.276 327.035 336.504 314.441 331.526 302.445C329.041 296.455 326.177 290.575 322.296 285.352C318.678 280.483 314.406 276.317 309.497 272.759C300.343 266.125 289.603 262.116 279.05 258.297L278.578 258.126C273.109 256.149 267.654 254.147 262.248 252.005C257.466 250.11 252.886 247.707 248.127 245.784C248.281 245.503 248.431 245.219 248.574 244.932L248.662 245.006C248.677 245.018 248.693 245.03 248.709 245.041C249.187 245.373 249.892 245.21 250.286 244.837C251.4 243.787 251.023 242.621 250.28 241.532L250.183 241.393C249.274 240.12 248.463 238.773 247.624 237.454L247.098 236.629C245.69 234.425 244.21 232.206 242.332 230.384C241.462 229.54 240.51 228.908 239.501 228.438C239.587 228.255 238.831 227.883 238.617 228.07C235.421 226.901 231.743 227.146 228.259 227.468M102.687 419.303L107.131 419.809C112.019 420.365 116.91 420.902 121.801 421.435L132.425 422.589C132.453 423.195 132.526 423.787 132.54 424.244C132.609 426.602 132.661 428.96 132.71 431.318C132.808 436.045 132.7 440.777 132.389 445.495C132.087 450.066 131.69 454.638 131.072 459.179L130.946 460.086L130.873 460.564C130.369 460.612 129.874 460.852 129.462 461.343C128.563 462.416 125.31 461.373 124.039 460.921C121.949 460.178 119.981 458.922 118.165 457.662C116.392 456.432 114.795 454.998 113.261 453.488L112.005 452.246C110.756 451.006 109.506 449.684 108.741 448.123C107.703 446.007 107.569 443.409 107.265 441.104C106.89 438.269 106.444 435.434 105.973 432.613M231.685 389.543L232.146 389.664C248.89 394.112 265.608 398.691 282.403 402.942C290.714 405.047 299.065 406.998 307.386 409.062L308.733 409.399C315.298 411.057 321.942 413.054 326.969 417.814C327.154 417.989 327.424 417.72 327.249 417.534C321.831 411.768 314.125 409.327 306.727 407.211C305.359 406.82 303.99 406.438 302.622 406.049C312.684 402.463 322.905 399.343 333.361 397.118C336.054 396.544 338.778 396.124 341.468 395.549C343.345 395.147 345.177 394.567 347.034 394.086L348.494 393.718L348.513 398.333C348.538 404.868 348.526 411.398 348.193 417.932L348.13 419.143C347.74 426.415 347.133 433.837 344.552 440.694C342.454 446.266 339.111 451.515 334.739 455.573C332.526 457.627 330.148 459.225 327.208 460.015C324.478 460.747 321.618 460.833 318.811 460.638C305.35 459.699 293.368 452.388 281.675 446.336C262.549 436.436 243.422 426.541 224.277 416.679C224.794 416.325 225.281 415.917 225.725 415.459C228.292 412.809 229.646 409.18 230.536 405.666C231.482 401.925 232.049 397.916 232.115 394.054M207.325 420.5C207.156 420.41 206.96 420.523 206.953 420.714C206.893 422.176 207.701 423.618 208.305 424.935L208.369 425.075C209.103 426.707 209.906 428.316 210.736 429.9C212.397 433.065 214.122 436.196 215.923 439.283C219.544 445.493 223.568 451.442 228.324 456.849C229.398 458.07 231.165 456.504 230.476 455.189C227.152 448.849 223.277 442.863 219.288 436.929C217.291 433.958 215.296 430.984 213.279 428.026C212.438 426.792 211.586 425.562 210.711 424.351L210.183 423.627M8.74936 300.786C25.5511 301.293 42.3332 302.389 59.055 304.105C74.6064 305.702 90.1008 307.827 105.508 310.476C108.726 311.03 111.94 311.606 115.15 312.204L117.075 312.566C120.286 313.175 124.208 313.426 127.067 315.14C130.08 316.948 130.895 320.726 131.898 323.841C133.076 327.505 134.225 331.179 135.343 334.863C139.783 349.487 143.838 364.238 147.456 379.086C149.251 386.456 150.845 393.868 152.524 401.265C154.015 407.837 155.661 414.335 157.38 420.841C157.168 420.677 156.909 420.551 156.595 420.484C148.057 418.669 139.341 417.879 130.676 416.876L129.837 416.778C120.873 415.724 111.909 414.678 102.939 413.67L43.5518 406.993C40.0494 406.599 36.2973 406.546 32.8888 405.606C27.0938 404.008 25.7355 397.531 24.7632 392.373L24.7339 392.217C21.8026 376.632 19.4691 360.911 16.7353 345.286M155.998 402.724C158.304 402.572 161.46 400.461 163.209 400.612C162.291 402.153 161.876 403.91 162.405 405.786C163.878 411.007 170.539 408.306 173.748 406.711C176.378 405.402 178.918 403.801 181.831 403.189C185.13 402.495 187.365 403.807 190.153 405.319C192.442 406.56 194.935 407.452 197.499 407.913C198.863 408.159 200.158 408.185 201.45 408.089C201.528 408.153 201.616 408.212 201.716 408.264L202.4 408.623C199.308 408.764 196.159 409.718 193.281 410.592C190.299 411.496 187.372 412.587 184.461 413.702L181.596 414.803C174.531 417.508 167.218 420.076 159.571 420.054C159.022 420.052 158.571 420.204 158.217 420.452M168.898 386.364C166.62 386.086 164.518 386.384 162.698 387.867C160.503 389.654 159.028 392.619 155.873 392.814C154.952 392.87 154.739 394.164 155.653 394.434C158.002 395.129 159.904 393.859 161.504 392.209L162.58 391.085C164.162 389.448 165.62 388.183 168.304 388.28C171.178 388.385 174.057 389.049 176.912 389.387C180.146 389.769 183.38 390.095 186.625 390.376C186.776 390.389 186.801 390.152 186.66 390.117L183.026 389.213M171.097 377.055L170.721 377.017C167.414 376.696 164.389 376.684 161.435 378.462L160.868 378.805C158.205 380.423 155.306 382.33 153.64 384.95C153.368 385.379 153.818 385.884 154.274 385.775C157.475 385.007 159.815 382.659 162.507 380.901C165.528 378.929 168.649 379.254 172.094 379.561C175.429 379.857 178.762 380.265 182.065 380.821C185.168 381.343 188.281 382.166 191.416 382.429L191.415 382.423C191.773 382.422 191.977 381.884 191.612 381.702C188.431 380.114 184.747 379.363 181.287 378.637M70.6164 344.371C70.9361 342.842 69.0551 342.133 68.1833 343.346L67.9979 343.602C66.1144 346.182 63.3904 349.419 63.5291 352.7C61.8734 352.736 60.1569 353.742 59.5118 355.235C59.2136 355.926 59.1125 356.745 59.1784 357.593C57.6734 357.71 56.0323 358.697 55.1122 359.659C53.5872 361.253 53.4668 363.506 54.5608 365.369C56.9461 369.43 62.1571 370.907 66.5561 371.237L66.7129 371.248C71.2566 371.562 77.8037 371.478 80.9192 367.58C83.9245 363.821 80.603 360.778 77.1971 359.125C78.0836 358.315 78.5428 357.155 78.1111 355.931C77.353 353.78 74.6766 352.949 73.1643 351.453C71.3207 349.63 70.1024 347.129 70.5882 344.514M68.1192 347.677C68.6203 349.854 69.8513 351.845 71.5657 353.423C72.2213 354.026 72.9386 354.563 73.7006 355.025L73.7922 355.078C74.4684 355.457 76.1306 356.169 76.0027 357.02C75.871 357.895 73.1629 359.265 72.4249 359.266C72.2569 359.266 72.1618 359.528 72.3333 359.604C73.671 360.195 74.8393 360.448 76.1474 359.824C77.0214 360.716 77.8703 361.639 78.7112 362.553C80.1981 364.172 79.6893 365.882 77.9323 367.087C75.109 369.024 70.8175 368.977 67.5234 368.836C64.2079 368.695 60.6639 367.955 58.0742 365.747L57.9613 365.649C56.5538 364.398 55.2682 362.277 57.4238 361.072C58.2678 360.6 59.1798 360.628 59.9812 360.398C60.7312 361.868 61.9478 363.045 63.4323 363.272C64.632 363.455 65.4582 361.948 64.3669 361.227L64.1217 361.074C62.7513 360.2 61.5819 358.853 61.6129 357.099C61.634 355.882 63.3348 354.344 64.4428 355.488L64.4935 355.543C65.4207 356.587 67.0537 355.271 66.4439 354.113L66.4146 354.061M284.358 287.136C284.363 286.875 283.995 286.777 283.866 287.003C281.714 290.789 280.589 295.429 279.442 299.599C278.242 303.968 277.272 308.381 276.402 312.826C274.638 321.827 273.698 330.777 273.634 339.952C273.626 341.262 275.76 341.61 275.969 340.268C277.355 331.344 278.683 322.41 280.08 313.489C280.783 309.002 281.601 304.532 282.384 300.058M263.053 293.73C263.211 293.208 262.451 293.033 262.257 293.51C257.938 304.109 256.475 316.121 259.248 327.303C259.672 329.013 262.178 328.272 261.858 326.583M207.342 284.312C207.364 283.921 206.857 283.859 206.666 284.128C204.619 287.011 203.77 290.872 200.18 292.361C198.387 293.105 196.37 292.976 194.786 294.232C193.727 295.072 192.915 296.399 193.71 297.671C193.966 298.082 194.684 298.288 195.032 297.842C195.539 297.191 195.808 296.411 196.498 295.923C197.471 295.235 198.783 295.193 199.898 294.869C201.341 294.451 202.613 293.719 203.655 292.632M173.153 236.231C172.942 236.124 172.739 236.192 172.605 236.375C172.412 236.634 172.436 236.887 172.671 237.065C172.356 237.709 171.984 239.322 171.931 239.557C171.715 240.509 171.486 241.455 171.246 242.401C170.763 244.307 170.339 246.229 169.855 248.137C169.341 250.159 168.73 252.159 168.049 254.131C168.005 254.259 167.957 254.389 167.906 254.521L167.829 254.721L167.809 254.691C167.671 254.472 167.383 254.625 167.417 254.856C167.449 255.066 167.492 255.276 167.527 255.486L167.456 255.675C167.011 256.873 166.706 258.135 167.523 259.192C167.829 259.587 168.165 259.821 168.584 259.891C169.256 262.105 170.099 264.278 171.001 266.365L171.266 266.974C172.593 270.019 174.009 273.024 176.123 275.617C178.43 278.447 181.605 280.38 183.615 283.481C184.55 284.923 185.201 286.44 185.729 288.069L185.928 288.688C186.302 289.84 186.735 290.957 187.816 291.633C188.161 291.848 188.678 291.78 188.956 291.486C191.174 289.141 188.852 284.763 187.515 282.492C185.657 279.335 182.967 277.316 180.274 274.934C177.371 272.367 175.519 268.932 173.728 265.549C172.631 263.476 171.571 261.359 170.456 259.277C171.621 258.248 171.994 256.203 172.389 254.782L172.425 254.654C173.077 252.378 173.596 250.043 173.923 247.697C174.238 245.442 174.37 243.219 174.286 240.951L174.262 240.373M168.821 246.965C169.078 246.612 168.652 246.213 168.299 246.286C166.152 246.73 164.053 248.029 162.125 249.08L161.92 249.192C160.381 250.021 158.833 251.037 158.026 252.648C157.147 254.399 157.219 256.416 157.339 258.319L157.351 258.497C157.497 260.78 157.521 263.151 158.004 265.392C158.251 266.539 159.29 266.862 160.179 266.591C161.236 269.928 164.205 272.386 166.374 275.019C169.14 278.376 168.619 282.908 168.33 286.951C168.213 288.588 170.25 289.054 171.299 288.18L173.716 286.173C174.119 285.838 174.521 285.502 174.922 285.165C175.265 284.876 175.605 284.585 175.943 284.291L176.447 283.845C176.671 283.646 177.657 282.544 177.945 282.498C178.644 282.387 180.303 284.228 180.871 284.805L180.943 284.877C182.012 285.925 182.978 287.052 183.878 288.248C184.043 288.468 184.367 288.286 184.248 288.032C183.442 286.305 182.505 284.655 181.392 283.11L181.167 282.802C180.427 281.805 179.433 280.043 178.126 279.749C176.53 279.389 174.936 280.989 173.775 281.877L173.701 281.933C173.149 282.347 172.603 282.769 172.058 283.194C172.115 280.183 171.734 277.142 170.18 274.548C169.084 272.718 167.441 271.363 166.036 269.791C164.472 268.041 163.655 265.889 162.239 264.066C162.056 263.832 161.805 263.705 161.533 263.665C161.478 262.199 161.262 260.719 161.095 259.269L161.047 258.835C160.878 257.26 160.48 255.336 161.251 253.861C161.98 252.467 163.652 251.483 164.89 250.538L165.901 249.754M238.509 230.308C239.156 230.682 239.76 231.147 240.308 231.728C242.034 233.558 243.268 235.836 244.468 238.026C245.115 239.206 245.738 240.399 246.39 241.577C246.673 242.089 246.965 242.595 247.26 243.101C247.396 243.334 247.801 243.798 248.001 244.083C247.778 244.395 247.548 244.703 247.313 245.007C247.223 245.123 241.033 251.865 238.875 254.504C235.571 258.545 232.617 262.814 230.092 267.383C227.619 271.858 225.737 276.596 223.447 281.157C222.3 283.44 221.02 285.708 219.388 287.684C219.325 287.761 219.258 287.834 219.194 287.91C218.571 286.228 216.975 284.426 216.191 283.392L216.118 283.295C214.34 280.899 212.462 278.575 210.544 276.291C208.792 274.205 206.995 272.164 205.155 270.157L204.463 269.406C203.181 268.021 201.553 265.95 199.676 264.96C199.877 264.602 200.11 264.248 200.377 263.898C202.136 261.6 204.621 259.933 207.074 258.429L208.665 257.462C214.66 253.809 220.563 249.987 225.768 245.24C228.522 242.729 231.238 240.098 233.553 237.169L234.371 236.134M228.505 228.499C231.313 228.735 234.345 228.679 236.94 229.593C234.633 231.774 232.44 234.127 230.188 236.344C229.987 234.845 229.578 233.364 229.23 231.902" fill="black"/>
<path fill-rule="evenodd" clip-rule="evenodd" d="M199.968 89.8572C180.017 89.8572 159.381 105.35 152.068 115.237C143.612 126.669 136.941 181.548 140.07 200.17C143.2 218.792 158.744 239.088 185.729 239.088C212.713 239.088 229.135 235.758 229.794 230.921C230.452 226.085 247.592 199.162 247.592 199.162C247.592 199.162 265.122 194.222 265.191 182.423C265.259 170.624 255.797 166.331 255.797 166.331C255.797 166.331 259.171 119.765 250.674 107.642C242.177 95.5187 219.919 89.8572 199.968 89.8572Z" fill="#874825"/>
<path fill-rule="evenodd" clip-rule="evenodd" d="M188.35 66.2473C185.213 65.5549 183.937 70.4174 187.035 70.9574C189.156 71.327 191.281 71.7917 193.378 72.3539C192.522 72.3028 191.671 72.3975 190.846 72.6806L190.358 72.5101C183.599 70.1657 176.265 68.3962 169.158 70.1988C163.331 74.4083 177.639 75.0521 179.945 75.6087C172.247 76.0755 164.25 74.3298 156.771 77.1125C153.901 78.2584 155.042 82.6829 160.15 80.6412C160.032 81.0165 160.001 81.4097 160.05 81.7811C157.735 82.0102 155.336 82.6439 153.23 83.9815C137.51 83.5929 131.844 96.4104 145.077 91.9795C144.719 92.2763 144.43 92.6026 144.206 92.9447L143.998 92.9599C140.492 93.2428 131.229 95.2645 131.722 99.467C129.293 99.9982 126.645 100.894 124.808 102.347C122.752 103.974 124.995 107.122 127.266 106.515C127.953 106.331 128.594 106.036 129.223 105.713C129.469 105.982 129.786 106.25 130.187 106.515C126.229 109.726 120.985 112.424 118.928 117.266C118.558 118.43 119.363 119.822 120.562 120.108C124.735 121.101 128.157 117.893 131.01 114.838C130.396 116.521 129.989 118.153 129.878 119.594C127.708 120.756 124.938 123.037 123.1 125.633C120.057 127.355 116.271 130.182 116.18 133.686C116.114 136.235 118.593 137.638 120.878 137.219L120.954 137.201C119.866 139.084 119.324 141.122 118.959 143.372L118.736 143.51C116.581 144.851 114.42 146.49 114.358 149.144C114.31 151.175 116.333 152.455 118.208 152.039C118.475 151.98 118.724 151.896 118.96 151.795C118.953 151.863 118.945 151.931 118.939 152C118.179 152.577 117.425 153.161 116.693 153.772L116.091 154.277C113.586 156.404 111.212 158.801 111.943 162.38C112.192 163.605 113.434 164.242 114.57 164.354C114.823 164.38 115.066 164.381 115.305 164.373L115.208 164.627C113.634 168.825 112.634 175.527 117.695 174.95C116.903 181.801 121.046 182.82 123.878 179.378C120.541 183.353 114.465 208.511 125.079 204.039C125.547 209.66 126.578 215.357 129.148 220.442L129.223 220.609C130.533 223.459 136.306 231.911 138.171 225.726C136.832 218.054 133.013 210.773 132.397 202.911C133.146 202.794 133.786 202.067 134.065 201.266C134.873 205.296 136.725 208.9 139.273 212.095C139.674 213.169 140.128 214.229 140.631 215.278C142.234 218.622 144.3 221.72 146.664 224.568C147.929 226.092 149.271 227.574 150.923 228.69C152.237 229.577 153.773 230.161 155.252 230.725C157.659 233.132 160.747 234.952 163.765 236.406C168.741 238.796 174.134 240.117 179.591 240.778C185.171 241.45 190.807 241.289 196.341 240.328C201.629 239.412 207.297 237.072 210.554 232.611C210.835 232.228 210.312 231.865 209.967 232.024C200.515 236.406 189.894 237.55 179.591 236.167C174.785 235.523 170.055 234.192 165.666 232.126C161.963 230.383 158.84 227.849 155.516 225.553C154.869 224.691 154.216 223.843 153.47 223.054L152.308 221.833C151.439 220.915 150.585 219.985 149.809 218.981C147.413 215.887 145.428 212.377 144.117 208.684C141.567 201.496 142.257 193.694 142.707 186.203L142.747 185.542C143.148 178.61 143.768 171.699 144.606 164.809C145.207 164.613 145.784 164.275 146.258 163.86C148.134 152.145 153.539 140.174 162.671 132.271C157.322 139.727 154.287 148.204 153.658 157.431C153.549 159.035 155.741 159.017 156.253 157.779C161.336 144.472 163.923 130.118 179.468 124.915C185.639 133.26 188.336 143.392 193.531 152.227C194.846 154.284 197.709 153.298 197.924 151.053C198.528 144.72 195.983 138.435 192.824 132.895L195.395 135.976C215.193 159.751 216.811 163.301 214.685 199.722C214.878 201.544 217.225 202.41 218.299 200.688C224.332 189.15 221.743 174.976 220.021 162.646C220.64 163.867 221.23 165.092 221.804 166.335C222.194 165.073 222.879 166.476 222.716 168.346C223.763 170.709 224.752 173.142 225.643 175.621C225.587 183.515 222.964 191.063 222.959 198.944C222.782 201.145 225.756 201.486 226.822 199.977C227.732 198.689 228.577 197.448 229.312 196.136C229.207 199.429 227.881 202.352 226.969 205.434C226.345 206.533 226.06 207.676 226.466 208.915L226.507 209.035C227.175 211.067 229.623 211.499 231.164 210.109C231.13 211.394 231.245 212.69 231.635 213.902C229.991 216.018 228.479 218.211 227.357 220.645C226.714 222.157 227.583 223.417 228.843 224.028C227.79 226.66 227.356 229.383 228.273 231.988C228.548 232.773 229.693 233.055 230.14 232.231C231.605 229.521 232.423 226.535 233.815 223.793C234.072 223.288 234.341 222.789 234.619 222.296C236.18 220.968 237.451 219.358 238.654 217.658C242.967 222.735 247.045 211.853 247.817 208.541L248.162 208.222C247.326 216.075 242.65 223.259 242.573 231.144C242.741 232.786 244.539 234.299 246.196 233.196C251.94 228.896 253.164 221.118 254.756 214.592C255.008 214.716 255.282 214.796 255.559 214.837C255.862 219.252 245.579 233.528 253.909 233.55C263.131 228.89 262.086 215.453 263.325 206.741C263.889 209.335 263.391 213.597 265.28 215.478C257.267 234.973 270.747 228.755 274.072 214.166C274.476 214.755 274.962 215.291 275.554 215.75C276.765 216.688 278.367 216.658 279.256 215.279C281.086 212.44 280.438 209.071 279.669 205.943C286.779 202.865 289.826 195.743 290.37 188.191C290.551 188.458 290.746 188.722 290.968 188.98C291.819 189.971 293.536 189.618 294.145 188.576C295.923 185.53 295.058 181.652 293.565 178.372C294.039 178.173 294.462 177.868 294.743 177.466C297.177 173.463 297.928 168.941 297.676 164.348C298.005 164.675 298.362 164.982 298.761 165.257C299.963 166.086 301.492 165.183 301.904 163.994C303.236 160.147 300.233 156.257 297.703 153.651C296.813 152.734 295.8 151.86 294.694 151.119C294.167 149.672 293.602 148.266 293.022 146.92C293.871 145.215 294.353 143.385 294.548 141.492C295.267 142.66 296.162 143.7 297.46 144.488C298.666 145.22 300.049 144.253 300.127 142.978C300.361 139.128 297.303 135.74 295.017 132.885L294.788 132.589C294.384 132.061 293.749 131.214 293.027 130.422C292.911 130.075 292.791 129.729 292.666 129.386C294.44 130.337 297.176 129.641 297.021 127.179C296.666 119.196 288.2 115.326 285.745 108.27C298.188 119.322 296.86 105.124 288.108 99.6022C287.407 99.021 286.684 98.4747 285.951 97.9456C286.949 97.3204 287.258 95.926 286.338 94.9175C283.782 92.1147 279.894 91.5352 276.25 91.229C274.948 91.1193 273.675 91.1072 272.394 91.2073L272.044 91.2374L271.944 91.2093C271.097 90.2155 270.147 89.3034 269.24 88.5198C276.129 87.2166 269.598 77.2315 253.856 80.8665C252.995 80.4307 252.107 80.0417 251.209 79.6876C253.558 79.5753 255.899 79.3634 258.224 78.8909C260.296 78.4699 260.644 75.3718 258.816 74.4269C251.506 70.8085 243.073 71.7019 235.242 73.5208C235.434 73.1625 235.523 72.764 235.527 72.3539C238.122 72.1046 238.352 68.1458 235.365 67.9184C230.354 67.5368 225.56 68.5028 221.133 70.423C220.566 70.3572 219.996 70.3153 219.423 70.2967C218.588 61.569 207.06 68.8073 204.526 73.0079C199.502 69.8844 194.151 67.503 188.35 66.2473Z" fill="#650000"/>
<path fill-rule="evenodd" clip-rule="evenodd" d="M161.922 206.223C163.084 207.742 165.188 208.905 167.544 209.461C169.79 209.991 172.271 209.97 174.412 209.154L174.596 209.081C176.197 208.416 177.734 207.074 178.318 205.673C178.55 205.116 178.628 204.55 178.47 204.021C178.327 203.546 177.992 203.109 177.434 202.733C177.259 202.615 177.024 202.607 176.8 202.646C176.523 202.695 176.249 202.825 176.084 203C175.168 203.974 173.838 204.924 172.265 204.908C171.051 204.895 170.06 204.416 169.099 203.874L168.423 203.488C167.771 203.116 167.11 202.767 166.362 202.607C165.024 202.321 163.4 202.843 162.411 203.705C161.979 204.081 161.666 204.522 161.581 204.998C161.509 205.397 161.609 205.814 161.922 206.223ZM168.882 179.661C166.223 181.277 162.172 185.044 165.032 189.05C168.399 192.582 173.247 188.532 175.636 186.701C177.851 185.282 180.34 188.932 178.285 190.59C161.023 203.366 154.017 180.083 167.537 177.761C169.026 177.505 169.579 179.161 168.882 179.661ZM198.879 154.827L198.115 154.618L197.336 154.408L196.81 154.268C193.192 153.322 189.201 152.488 185.614 152.895C184.305 153.044 183.243 153.78 183.058 155.15C182.902 156.307 183.65 157.798 184.922 158.004C189.136 158.686 193.449 158.465 197.682 159.167C199.791 159.517 201.882 159.951 203.982 160.342C205.579 160.64 207.229 160.744 208.84 160.985L208.47 161.036C208.34 161.054 208.373 161.272 208.5 161.263C209.031 161.21 209.563 161.202 210.095 161.239L210.324 161.258C210.671 161.307 210.876 160.892 210.566 160.682C208.604 159.351 206.939 157.908 204.742 156.927C202.841 156.079 200.885 155.379 198.879 154.827ZM165.943 152.786C163.161 149.975 157.246 151.055 153.937 152.341C152.048 153.075 150.252 154.003 148.756 155.392L148.611 155.529L148.386 155.745C147.376 156.733 146.25 158.093 146.411 159.517C146.435 159.735 146.553 159.983 146.799 160.027C148.124 160.261 149.426 159.562 150.65 159.142L151.46 158.863C152.677 158.449 153.902 158.053 155.157 157.767C156.718 157.412 158.31 157.207 159.912 157.227C161.531 157.248 163.271 157.705 164.813 157.062C166.534 156.346 167.426 154.285 165.943 152.786ZM193.424 175.459C194.134 176.183 195.071 176.592 196.271 176.349C197.208 176.159 198.993 175.217 200.419 173.765C201.394 172.773 202.21 171.532 202.431 170.095C202.483 169.761 202.66 169.547 202.893 169.413C203.076 169.306 203.319 169.253 203.582 169.279C203.806 169.302 204.044 169.383 204.228 169.491C204.578 169.695 204.721 169.986 204.75 170.202C205.03 172.295 204.222 174.371 202.962 176.121C201.261 178.483 198.764 180.215 197.296 180.62C194.784 181.313 192.137 180.761 190.186 179.013C188.625 177.616 187.825 175.795 187.083 173.923L186.94 173.56C186.773 173.135 186.608 172.713 186.432 172.296C186.08 171.46 186.193 170.737 186.534 170.174C186.912 169.55 187.609 169.111 188.386 168.976C189.103 168.851 189.871 168.988 190.478 169.426C190.99 169.796 191.403 170.383 191.549 171.25C191.788 172.66 192.342 174.279 193.318 175.346L193.424 175.459ZM150.352 167.295C150.937 166.991 151.395 166.899 152.044 167.093C152.403 167.201 152.758 167.408 153.036 167.685C153.311 167.961 153.51 168.303 153.587 168.683C153.777 169.62 154.29 170.497 155.021 171.069C155.646 171.558 156.434 171.817 157.309 171.671C158.253 171.513 159.152 170.908 159.771 170.195C159.944 169.996 160.085 169.774 160.222 169.55L160.304 169.415C160.609 168.912 160.905 168.444 161.326 168.074C161.486 167.933 161.726 167.836 161.959 167.836C162.053 167.836 162.15 167.851 162.241 167.879C163.18 168.822 163.361 169.537 163.331 170.246C163.299 170.99 163.006 171.743 162.532 172.446C161.42 174.094 159.309 175.445 157.884 175.751C155.934 176.171 153.996 175.667 152.443 174.578C150.844 173.457 149.66 171.717 149.291 169.756C149.202 169.283 149.24 168.774 149.42 168.332C149.595 167.9 149.902 167.53 150.352 167.295Z" fill="black"/>
<path fill-rule="evenodd" clip-rule="evenodd" d="M200.252 215.858C197.401 209.181 191.179 204.274 184.015 202.48C178.755 201.166 173.234 201.207 167.871 201.729C165.062 202 162.048 202.223 159.4 203.266C157.139 204.157 155.296 205.842 153.911 207.819C152.262 210.162 151.14 212.844 150.352 215.592C150.241 215.983 150.135 216.377 150.037 216.773C150.38 218.846 151.107 220.612 153.028 221.916C154.903 223.189 157.14 223.71 159.371 223.895C159.589 223.79 159.801 223.682 159.994 223.571C163.47 221.582 165.916 216.882 170.302 217.518C174.217 218.086 176.794 223.01 179.122 225.898C186.594 226.768 194.061 224.523 200.141 220.251C200.45 218.789 200.467 217.315 200.252 215.858ZM144.958 210.793C145.556 209.116 146.309 207.491 147.202 205.961C150.152 200.901 154.681 196.869 160.058 194.565C172.777 189.12 189.234 192.958 199.505 201.888C203.014 204.94 206.562 209.426 207.635 214.251C207.955 214.314 208.257 214.481 208.506 214.716C215.928 210.045 223.57 205.55 229.55 199.075C233.893 194.371 236.913 188.803 238.763 182.685C238.914 182.182 239.727 182.255 239.702 182.813C239.695 182.943 239.688 183.073 239.681 183.203C239.758 182.964 240.124 183.087 240.152 183.32C241.147 190.752 242.392 198.631 241.246 206.102C240.56 210.56 238.534 213.824 235.827 217.348C232.926 221.125 229.641 224.639 226.283 228.008C224.152 230.146 221.926 232.613 219.317 234.181C216.282 236.003 212.84 237.389 209.601 238.794C206.306 240.229 202.962 241.554 199.555 242.702C192.743 245.007 185.703 246.6 178.54 247.298C172.805 247.855 166.25 248.461 160.754 246.304C156.541 244.651 153.141 241.663 150.444 238.068C147.508 234.153 145.186 229.694 143.903 224.991C142.57 220.106 144.677 211.58 144.958 210.793Z" fill="black"/>
</g>
<defs>
<filter id="filter0_d_22_462" x="0.879257" y="0" width="419.121" height="547.651" filterUnits="userSpaceOnUse" color-interpolation-filters="sRGB">
<feFlood flood-opacity="0" result="BackgroundImageFix"/>
<feColorMatrix in="SourceAlpha" type="matrix" values="0 0 0 0 0 0 0 0 0 0 0 0 0 0 0 0 0 0 127 0" result="hardAlpha"/>
<feOffset dy="4"/>
<feGaussianBlur stdDeviation="2"/>
<feComposite in2="hardAlpha" operator="out"/>
<feColorMatrix type="matrix" values="0 0 0 0 0 0 0 0 0 0 0 0 0 0 0 0 0 0 0.25 0"/>
<feBlend mode="normal" in2="BackgroundImageFix" result="effect1_dropShadow_22_462"/>
<feBlend mode="normal" in="SourceGraphic" in2="effect1_dropShadow_22_462" result="shape"/>
</filter>
</defs>
</svg>
