<svg width="48" height="48" viewBox="0 0 48 48" fill="none" xmlns="http://www.w3.org/2000/svg">
<g id="Icon/Solid/document-text">
<path id="Icon" fill-rule="evenodd" clip-rule="evenodd" d="M9.6 9.6C9.6 6.94903 11.749 4.8 14.4 4.8H25.4059C26.6789 4.8 27.8998 5.30571 28.8 6.20589L36.9941 14.4C37.8943 15.3002 38.4 16.5211 38.4 17.7941V38.4C38.4 41.051 36.251 43.2 33.6 43.2H14.4C11.749 43.2 9.6 41.051 9.6 38.4V9.6ZM14.4 24C14.4 22.6745 15.4745 21.6 16.8 21.6H31.2C32.5255 21.6 33.6 22.6745 33.6 24C33.6 25.3255 32.5255 26.4 31.2 26.4H16.8C15.4745 26.4 14.4 25.3255 14.4 24ZM16.8 31.2C15.4745 31.2 14.4 32.2745 14.4 33.6C14.4 34.9255 15.4745 36 16.8 36H31.2C32.5255 36 33.6 34.9255 33.6 33.6C33.6 32.2745 32.5255 31.2 31.2 31.2H16.8Z" fill="#2A003B"/>
</g>
</svg>
