<svg width="48" height="48" viewBox="0 0 48 48" fill="none" xmlns="http://www.w3.org/2000/svg">
<g id="Icon/Solid/calendar">
<path id="Icon" fill-rule="evenodd" clip-rule="evenodd" d="M14.4 4.8C13.0745 4.8 12 5.87452 12 7.2V9.6H9.59999C6.94902 9.6 4.79999 11.749 4.79999 14.4V38.4C4.79999 41.051 6.94902 43.2 9.59999 43.2H38.4C41.051 43.2 43.2 41.051 43.2 38.4V14.4C43.2 11.749 41.051 9.6 38.4 9.6H36V7.2C36 5.87452 34.9255 4.8 33.6 4.8C32.2745 4.8 31.2 5.87452 31.2 7.2V9.6H16.8V7.2C16.8 5.87452 15.7255 4.8 14.4 4.8ZM14.4 16.8C13.0745 16.8 12 17.8745 12 19.2C12 20.5255 13.0745 21.6 14.4 21.6H33.6C34.9255 21.6 36 20.5255 36 19.2C36 17.8745 34.9255 16.8 33.6 16.8H14.4Z" fill="#2A003B"/>
</g>
</svg>
