<svg width="48" height="49" viewBox="0 0 48 49" fill="none" xmlns="http://www.w3.org/2000/svg">
<g id="Nextjs">
<path id="Vector" d="M22.4282 0.163796C22.3249 0.173179 21.9965 0.206018 21.7009 0.229475C14.8833 0.844048 8.49736 4.5221 4.45279 10.1752C2.20059 13.3185 0.760117 16.8839 0.215836 20.6605C0.0234604 21.9788 0 22.3682 0 24.1556C0 25.943 0.0234604 26.3324 0.215836 27.6507C1.52023 36.6628 7.93431 44.2347 16.6334 47.0402C18.1912 47.5422 19.8334 47.8846 21.7009 48.0911C22.4282 48.1708 25.5718 48.1708 26.2991 48.0911C29.5226 47.7345 32.2534 46.937 34.9466 45.5624C35.3595 45.3513 35.4393 45.295 35.383 45.2481C35.3455 45.2199 33.5859 42.8602 31.4745 40.0078L27.6364 34.8238L22.827 27.707C20.1806 23.7943 18.0035 20.5948 17.9848 20.5948C17.966 20.5901 17.9472 23.7521 17.9378 27.6131C17.9238 34.3734 17.9191 34.6455 17.8346 34.805C17.7126 35.0349 17.6188 35.1287 17.4217 35.232C17.2716 35.307 17.1402 35.3211 16.4317 35.3211H15.6199L15.4041 35.185C15.2633 35.0959 15.1601 34.9786 15.0897 34.8426L14.9912 34.6315L15.0006 25.2252L15.0147 15.8143L15.1601 15.6313C15.2352 15.5328 15.3947 15.4061 15.5073 15.3451C15.6997 15.2513 15.7748 15.2419 16.5865 15.2419C17.5437 15.2419 17.7032 15.2795 17.9519 15.5516C18.0223 15.6266 20.6264 19.5486 23.7419 24.2729C26.8575 28.9971 31.1179 35.4478 33.2106 38.6145L37.0111 44.3708L37.2035 44.2441C38.9067 43.137 40.7085 41.5606 42.1349 39.9187C45.1707 36.433 47.1273 32.1826 47.7842 27.6507C47.9765 26.3324 48 25.943 48 24.1556C48 22.3682 47.9765 21.9788 47.7842 20.6605C46.4798 11.6483 40.0657 4.07642 31.3666 1.27096C29.8323 0.773677 28.1994 0.431205 26.3695 0.224784C25.9191 0.17787 22.8176 0.126265 22.4282 0.163796ZM32.2534 14.679C32.4786 14.7916 32.6616 15.0074 32.7273 15.2325C32.7648 15.3545 32.7742 17.9629 32.7648 23.8413L32.7507 32.2764L31.2633 29.9964L29.7713 27.7163V21.5847C29.7713 17.6205 29.79 15.3921 29.8182 15.2842C29.8933 15.0214 30.0575 14.815 30.2827 14.693C30.4751 14.5945 30.5455 14.5851 31.2821 14.5851C31.9765 14.5851 32.0985 14.5945 32.2534 14.679Z" fill="black"/>
</g>
</svg>
