<svg width="48" height="49" viewBox="0 0 48 49" fill="none" xmlns="http://www.w3.org/2000/svg">
<g id="Nodejs" clip-path="url(#clip0_57_263)">
<path id="Shape" fill-rule="evenodd" clip-rule="evenodd" d="M24.0425 47.5014C23.3977 47.5014 22.796 47.3295 22.2372 47.0286L16.5203 43.6329C15.6606 43.16 16.0905 42.9881 16.3484 42.9021C17.5089 42.5153 17.7239 42.4293 18.9274 41.7416C19.0564 41.6556 19.2283 41.6986 19.3572 41.7845L23.7416 44.4066C23.9135 44.4925 24.1285 44.4925 24.2574 44.4066L41.408 34.4773C41.5799 34.3913 41.6659 34.2194 41.6659 34.0044V14.1888C41.6659 13.9739 41.5799 13.802 41.408 13.716L24.2574 3.82971C24.0855 3.74375 23.8706 3.74375 23.7416 3.82971L6.59101 13.716C6.41908 13.802 6.33311 14.0169 6.33311 14.1888V34.0044C6.33311 34.1764 6.41908 34.3913 6.59101 34.4773L11.2763 37.1853C13.8123 38.4748 15.4027 36.9703 15.4027 35.4659V15.9082C15.4027 15.6503 15.6176 15.3924 15.9185 15.3924H18.1107C18.3686 15.3924 18.6265 15.6073 18.6265 15.9082V35.4659C18.6265 38.8616 16.7782 40.8389 13.5544 40.8389C12.5658 40.8389 11.7921 40.8389 9.59989 39.7643L5.08658 37.1853C3.96899 36.5405 3.28125 35.3369 3.28125 34.0474V14.2318C3.28125 12.9423 3.96899 11.7388 5.08658 11.094L22.2372 1.16471C23.3118 0.562935 24.7732 0.562935 25.8478 1.16471L42.9984 11.094C44.116 11.7388 44.8037 12.9423 44.8037 14.2318V34.0474C44.8037 35.3369 44.116 36.5405 42.9984 37.1853L25.8478 47.1145C25.289 47.3725 24.6443 47.5014 24.0425 47.5014ZM29.3295 33.8755C21.8073 33.8755 20.2599 30.4368 20.2599 27.5139C20.2599 27.256 20.4748 26.9981 20.7757 26.9981H23.0109C23.2688 26.9981 23.4837 27.17 23.4837 27.4279C23.8276 29.7061 24.8162 30.8236 29.3725 30.8236C32.9832 30.8236 34.5306 30.0069 34.5306 28.0727C34.5306 26.9551 34.1007 26.1384 28.4698 25.5796C23.7846 25.1068 20.8617 24.0752 20.8617 20.3355C20.8617 16.8538 23.7846 14.7906 28.6848 14.7906C34.1867 14.7906 36.8947 16.6819 37.2386 20.8084C37.2386 20.9373 37.1956 21.0663 37.1096 21.1952C37.0236 21.2812 36.8947 21.3672 36.7657 21.3672H34.5306C34.3157 21.3672 34.1007 21.1952 34.0578 20.9803C33.542 18.6162 32.2094 17.8425 28.6848 17.8425C24.7302 17.8425 24.2574 19.218 24.2574 20.2496C24.2574 21.4961 24.8162 21.883 30.1462 22.5707C35.4332 23.2585 37.9263 24.2471 37.9263 27.9437C37.8833 31.7263 34.7885 33.8755 29.3295 33.8755Z" fill="#539E43"/>
</g>
<defs>
<clipPath id="clip0_57_263">
<rect width="48" height="48" fill="white" transform="translate(0 0.150879)"/>
</clipPath>
</defs>
</svg>
